<?xml version="1.0" encoding="UTF-8" standalone="no"?>
<!DOCTYPE svg PUBLIC "-//W3C//DTD SVG 1.1//EN"
 "http://www.w3.org/Graphics/SVG/1.1/DTD/svg11.dtd">
<!-- Generated by graphviz version 2.40.1 (20161225.0304)
 -->
<!-- Title: Tree Pages: 1 -->
<svg width="1134pt" height="358pt"
 viewBox="0.00 0.00 1133.81 358.00" xmlns="http://www.w3.org/2000/svg" xmlns:xlink="http://www.w3.org/1999/xlink">
<g id="graph0" class="graph" transform="scale(1 1) rotate(0) translate(4 354)">
<title>Tree</title>
<polygon fill="#ffffff" stroke="transparent" points="-4,4 -4,-354 1129.8062,-354 1129.8062,4 -4,4"/>
<!-- 0 -->
<g id="node1" class="node">
<title>0</title>
<path fill="#e58139" fill-opacity="0.392157" stroke="#000000" d="M604.7283,-350C604.7283,-350 485.1848,-350 485.1848,-350 479.1848,-350 473.1848,-344 473.1848,-338 473.1848,-338 473.1848,-298 473.1848,-298 473.1848,-292 479.1848,-286 485.1848,-286 485.1848,-286 604.7283,-286 604.7283,-286 610.7283,-286 616.7283,-292 616.7283,-298 616.7283,-298 616.7283,-338 616.7283,-338 616.7283,-344 610.7283,-350 604.7283,-350"/>
<text text-anchor="middle" x="544.9565" y="-334.8" font-family="Helvetica,sans-Serif" font-size="14.00" fill="#000000">previous &lt;= 0.5</text>
<text text-anchor="middle" x="544.9565" y="-320.8" font-family="Helvetica,sans-Serif" font-size="14.00" fill="#000000">gini = 0.471</text>
<text text-anchor="middle" x="544.9565" y="-306.8" font-family="Helvetica,sans-Serif" font-size="14.00" fill="#000000">samples = 4841</text>
<text text-anchor="middle" x="544.9565" y="-292.8" font-family="Helvetica,sans-Serif" font-size="14.00" fill="#000000">value = [3008, 1833]</text>
</g>
<!-- 1 -->
<g id="node2" class="node">
<title>1</title>
<path fill="#e58139" fill-opacity="0.827451" stroke="#000000" d="M458.9428,-250C458.9428,-250 346.9703,-250 346.9703,-250 340.9703,-250 334.9703,-244 334.9703,-238 334.9703,-238 334.9703,-198 334.9703,-198 334.9703,-192 340.9703,-186 346.9703,-186 346.9703,-186 458.9428,-186 458.9428,-186 464.9428,-186 470.9428,-192 470.9428,-198 470.9428,-198 470.9428,-238 470.9428,-238 470.9428,-244 464.9428,-250 458.9428,-250"/>
<text text-anchor="middle" x="402.9565" y="-234.8" font-family="Helvetica,sans-Serif" font-size="14.00" fill="#000000">H &lt;= 27.5</text>
<text text-anchor="middle" x="402.9565" y="-220.8" font-family="Helvetica,sans-Serif" font-size="14.00" fill="#000000">gini = 0.251</text>
<text text-anchor="middle" x="402.9565" y="-206.8" font-family="Helvetica,sans-Serif" font-size="14.00" fill="#000000">samples = 1712</text>
<text text-anchor="middle" x="402.9565" y="-192.8" font-family="Helvetica,sans-Serif" font-size="14.00" fill="#000000">value = [1460, 252]</text>
</g>
<!-- 0&#45;&gt;1 -->
<g id="edge1" class="edge">
<title>0&#45;&gt;1</title>
<path fill="none" stroke="#000000" d="M499.2452,-285.8089C485.8169,-276.3524 471.0004,-265.9182 457.099,-256.1285"/>
<polygon fill="#000000" stroke="#000000" points="458.7735,-253.027 448.5822,-250.1308 454.7431,-258.7502 458.7735,-253.027"/>
<text text-anchor="middle" x="452.8572" y="-270.5625" font-family="Helvetica,sans-Serif" font-size="14.00" fill="#000000">True</text>
</g>
<!-- 8 -->
<g id="node9" class="node">
<title>8</title>
<path fill="#399de5" fill-opacity="0.019608" stroke="#000000" d="M754.7283,-250C754.7283,-250 635.1848,-250 635.1848,-250 629.1848,-250 623.1848,-244 623.1848,-238 623.1848,-238 623.1848,-198 623.1848,-198 623.1848,-192 629.1848,-186 635.1848,-186 635.1848,-186 754.7283,-186 754.7283,-186 760.7283,-186 766.7283,-192 766.7283,-198 766.7283,-198 766.7283,-238 766.7283,-238 766.7283,-244 760.7283,-250 754.7283,-250"/>
<text text-anchor="middle" x="694.9565" y="-234.8" font-family="Helvetica,sans-Serif" font-size="14.00" fill="#000000">ERA &lt;= 4.575</text>
<text text-anchor="middle" x="694.9565" y="-220.8" font-family="Helvetica,sans-Serif" font-size="14.00" fill="#000000">gini = 0.5</text>
<text text-anchor="middle" x="694.9565" y="-206.8" font-family="Helvetica,sans-Serif" font-size="14.00" fill="#000000">samples = 3129</text>
<text text-anchor="middle" x="694.9565" y="-192.8" font-family="Helvetica,sans-Serif" font-size="14.00" fill="#000000">value = [1548, 1581]</text>
</g>
<!-- 0&#45;&gt;8 -->
<g id="edge8" class="edge">
<title>0&#45;&gt;8</title>
<path fill="none" stroke="#000000" d="M593.2432,-285.8089C607.5618,-276.2632 623.3747,-265.7213 638.1792,-255.8516"/>
<polygon fill="#000000" stroke="#000000" points="640.3814,-258.59 646.7604,-250.1308 636.4984,-252.7656 640.3814,-258.59"/>
<text text-anchor="middle" x="641.8575" y="-270.4453" font-family="Helvetica,sans-Serif" font-size="14.00" fill="#000000">False</text>
</g>
<!-- 2 -->
<g id="node3" class="node">
<title>2</title>
<path fill="#e58139" fill-opacity="0.901961" stroke="#000000" d="M246.2391,-150C246.2391,-150 149.674,-150 149.674,-150 143.674,-150 137.674,-144 137.674,-138 137.674,-138 137.674,-98 137.674,-98 137.674,-92 143.674,-86 149.674,-86 149.674,-86 246.2391,-86 246.2391,-86 252.2391,-86 258.2391,-92 258.2391,-98 258.2391,-98 258.2391,-138 258.2391,-138 258.2391,-144 252.2391,-150 246.2391,-150"/>
<text text-anchor="middle" x="197.9565" y="-134.8" font-family="Helvetica,sans-Serif" font-size="14.00" fill="#000000">in_majors &lt;= 0.5</text>
<text text-anchor="middle" x="197.9565" y="-120.8" font-family="Helvetica,sans-Serif" font-size="14.00" fill="#000000">gini = 0.16</text>
<text text-anchor="middle" x="197.9565" y="-106.8" font-family="Helvetica,sans-Serif" font-size="14.00" fill="#000000">samples = 968</text>
<text text-anchor="middle" x="197.9565" y="-92.8" font-family="Helvetica,sans-Serif" font-size="14.00" fill="#000000">value = [883, 85]</text>
</g>
<!-- 1&#45;&gt;2 -->
<g id="edge2" class="edge">
<title>1&#45;&gt;2</title>
<path fill="none" stroke="#000000" d="M337.2474,-185.9467C315.0143,-175.1013 290.1184,-162.957 267.5912,-151.9681"/>
<polygon fill="#000000" stroke="#000000" points="268.9502,-148.7369 258.428,-147.4983 265.8812,-155.0283 268.9502,-148.7369"/>
</g>
<!-- 5 -->
<g id="node6" class="node">
<title>5</title>
<path fill="#e58139" fill-opacity="0.709804" stroke="#000000" d="M454.6561,-150C454.6561,-150 351.257,-150 351.257,-150 345.257,-150 339.257,-144 339.257,-138 339.257,-138 339.257,-98 339.257,-98 339.257,-92 345.257,-86 351.257,-86 351.257,-86 454.6561,-86 454.6561,-86 460.6561,-86 466.6561,-92 466.6561,-98 466.6561,-98 466.6561,-138 466.6561,-138 466.6561,-144 460.6561,-150 454.6561,-150"/>
<text text-anchor="middle" x="402.9565" y="-134.8" font-family="Helvetica,sans-Serif" font-size="14.00" fill="#000000">Age &lt;= 25.5</text>
<text text-anchor="middle" x="402.9565" y="-120.8" font-family="Helvetica,sans-Serif" font-size="14.00" fill="#000000">gini = 0.348</text>
<text text-anchor="middle" x="402.9565" y="-106.8" font-family="Helvetica,sans-Serif" font-size="14.00" fill="#000000">samples = 744</text>
<text text-anchor="middle" x="402.9565" y="-92.8" font-family="Helvetica,sans-Serif" font-size="14.00" fill="#000000">value = [577, 167]</text>
</g>
<!-- 1&#45;&gt;5 -->
<g id="edge5" class="edge">
<title>1&#45;&gt;5</title>
<path fill="none" stroke="#000000" d="M402.9565,-185.8089C402.9565,-177.6906 402.9565,-168.8517 402.9565,-160.3186"/>
<polygon fill="#000000" stroke="#000000" points="406.4566,-160.1307 402.9565,-150.1308 399.4566,-160.1308 406.4566,-160.1307"/>
</g>
<!-- 3 -->
<g id="node4" class="node">
<title>3</title>
<path fill="#e58139" fill-opacity="0.843137" stroke="#000000" d="M107.8697,-50C107.8697,-50 12.0434,-50 12.0434,-50 6.0434,-50 .0434,-44 .0434,-38 .0434,-38 .0434,-12 .0434,-12 .0434,-6 6.0434,0 12.0434,0 12.0434,0 107.8697,0 107.8697,0 113.8697,0 119.8697,-6 119.8697,-12 119.8697,-12 119.8697,-38 119.8697,-38 119.8697,-44 113.8697,-50 107.8697,-50"/>
<text text-anchor="middle" x="59.9565" y="-34.8" font-family="Helvetica,sans-Serif" font-size="14.00" fill="#000000">gini = 0.236</text>
<text text-anchor="middle" x="59.9565" y="-20.8" font-family="Helvetica,sans-Serif" font-size="14.00" fill="#000000">samples = 447</text>
<text text-anchor="middle" x="59.9565" y="-6.8" font-family="Helvetica,sans-Serif" font-size="14.00" fill="#000000">value = [386, 61]</text>
</g>
<!-- 2&#45;&gt;3 -->
<g id="edge3" class="edge">
<title>2&#45;&gt;3</title>
<path fill="none" stroke="#000000" d="M150.4648,-85.9947C135.8657,-76.1562 119.8393,-65.3558 105.3822,-55.613"/>
<polygon fill="#000000" stroke="#000000" points="107.3228,-52.7002 97.0741,-50.014 103.4108,-58.505 107.3228,-52.7002"/>
</g>
<!-- 4 -->
<g id="node5" class="node">
<title>4</title>
<path fill="#e58139" fill-opacity="0.952941" stroke="#000000" d="M245.8697,-50C245.8697,-50 150.0434,-50 150.0434,-50 144.0434,-50 138.0434,-44 138.0434,-38 138.0434,-38 138.0434,-12 138.0434,-12 138.0434,-6 144.0434,0 150.0434,0 150.0434,0 245.8697,0 245.8697,0 251.8697,0 257.8697,-6 257.8697,-12 257.8697,-12 257.8697,-38 257.8697,-38 257.8697,-44 251.8697,-50 245.8697,-50"/>
<text text-anchor="middle" x="197.9565" y="-34.8" font-family="Helvetica,sans-Serif" font-size="14.00" fill="#000000">gini = 0.088</text>
<text text-anchor="middle" x="197.9565" y="-20.8" font-family="Helvetica,sans-Serif" font-size="14.00" fill="#000000">samples = 521</text>
<text text-anchor="middle" x="197.9565" y="-6.8" font-family="Helvetica,sans-Serif" font-size="14.00" fill="#000000">value = [497, 24]</text>
</g>
<!-- 2&#45;&gt;4 -->
<g id="edge4" class="edge">
<title>2&#45;&gt;4</title>
<path fill="none" stroke="#000000" d="M197.9565,-85.9947C197.9565,-77.6273 197.9565,-68.5643 197.9565,-60.0478"/>
<polygon fill="#000000" stroke="#000000" points="201.4566,-60.014 197.9565,-50.014 194.4566,-60.0141 201.4566,-60.014"/>
</g>
<!-- 6 -->
<g id="node7" class="node">
<title>6</title>
<path fill="#e58139" fill-opacity="0.541176" stroke="#000000" d="M391.6561,-50C391.6561,-50 288.257,-50 288.257,-50 282.257,-50 276.257,-44 276.257,-38 276.257,-38 276.257,-12 276.257,-12 276.257,-6 282.257,0 288.257,0 288.257,0 391.6561,0 391.6561,0 397.6561,0 403.6561,-6 403.6561,-12 403.6561,-12 403.6561,-38 403.6561,-38 403.6561,-44 397.6561,-50 391.6561,-50"/>
<text text-anchor="middle" x="339.9565" y="-34.8" font-family="Helvetica,sans-Serif" font-size="14.00" fill="#000000">gini = 0.431</text>
<text text-anchor="middle" x="339.9565" y="-20.8" font-family="Helvetica,sans-Serif" font-size="14.00" fill="#000000">samples = 337</text>
<text text-anchor="middle" x="339.9565" y="-6.8" font-family="Helvetica,sans-Serif" font-size="14.00" fill="#000000">value = [231, 106]</text>
</g>
<!-- 5&#45;&gt;6 -->
<g id="edge6" class="edge">
<title>5&#45;&gt;6</title>
<path fill="none" stroke="#000000" d="M381.2755,-85.9947C375.2336,-77.0756 368.6562,-67.3661 362.5625,-58.3706"/>
<polygon fill="#000000" stroke="#000000" points="365.4078,-56.3303 356.9015,-50.014 359.6123,-60.2562 365.4078,-56.3303"/>
</g>
<!-- 7 -->
<g id="node8" class="node">
<title>7</title>
<path fill="#e58139" fill-opacity="0.823529" stroke="#000000" d="M529.8697,-50C529.8697,-50 434.0434,-50 434.0434,-50 428.0434,-50 422.0434,-44 422.0434,-38 422.0434,-38 422.0434,-12 422.0434,-12 422.0434,-6 428.0434,0 434.0434,0 434.0434,0 529.8697,0 529.8697,0 535.8697,0 541.8697,-6 541.8697,-12 541.8697,-12 541.8697,-38 541.8697,-38 541.8697,-44 535.8697,-50 529.8697,-50"/>
<text text-anchor="middle" x="481.9565" y="-34.8" font-family="Helvetica,sans-Serif" font-size="14.00" fill="#000000">gini = 0.255</text>
<text text-anchor="middle" x="481.9565" y="-20.8" font-family="Helvetica,sans-Serif" font-size="14.00" fill="#000000">samples = 407</text>
<text text-anchor="middle" x="481.9565" y="-6.8" font-family="Helvetica,sans-Serif" font-size="14.00" fill="#000000">value = [346, 61]</text>
</g>
<!-- 5&#45;&gt;7 -->
<g id="edge7" class="edge">
<title>5&#45;&gt;7</title>
<path fill="none" stroke="#000000" d="M430.1439,-85.9947C437.8765,-76.8917 446.3085,-66.9654 454.0813,-57.8152"/>
<polygon fill="#000000" stroke="#000000" points="456.9014,-59.9014 460.7081,-50.014 451.5664,-55.3695 456.9014,-59.9014"/>
</g>
<!-- 9 -->
<g id="node10" class="node">
<title>9</title>
<path fill="#399de5" fill-opacity="0.262745" stroke="#000000" d="M750.4104,-150C750.4104,-150 639.5027,-150 639.5027,-150 633.5027,-150 627.5027,-144 627.5027,-138 627.5027,-138 627.5027,-98 627.5027,-98 627.5027,-92 633.5027,-86 639.5027,-86 639.5027,-86 750.4104,-86 750.4104,-86 756.4104,-86 762.4104,-92 762.4104,-98 762.4104,-98 762.4104,-138 762.4104,-138 762.4104,-144 756.4104,-150 750.4104,-150"/>
<text text-anchor="middle" x="694.9565" y="-134.8" font-family="Helvetica,sans-Serif" font-size="14.00" fill="#000000">Pitches &lt;= 785.5</text>
<text text-anchor="middle" x="694.9565" y="-120.8" font-family="Helvetica,sans-Serif" font-size="14.00" fill="#000000">gini = 0.488</text>
<text text-anchor="middle" x="694.9565" y="-106.8" font-family="Helvetica,sans-Serif" font-size="14.00" fill="#000000">samples = 1975</text>
<text text-anchor="middle" x="694.9565" y="-92.8" font-family="Helvetica,sans-Serif" font-size="14.00" fill="#000000">value = [837, 1138]</text>
</g>
<!-- 8&#45;&gt;9 -->
<g id="edge9" class="edge">
<title>8&#45;&gt;9</title>
<path fill="none" stroke="#000000" d="M694.9565,-185.8089C694.9565,-177.6906 694.9565,-168.8517 694.9565,-160.3186"/>
<polygon fill="#000000" stroke="#000000" points="698.4566,-160.1307 694.9565,-150.1308 691.4566,-160.1308 698.4566,-160.1307"/>
</g>
<!-- 12 -->
<g id="node13" class="node">
<title>12</title>
<path fill="#e58139" fill-opacity="0.376471" stroke="#000000" d="M968.3179,-150C968.3179,-150 863.5951,-150 863.5951,-150 857.5951,-150 851.5951,-144 851.5951,-138 851.5951,-138 851.5951,-98 851.5951,-98 851.5951,-92 857.5951,-86 863.5951,-86 863.5951,-86 968.3179,-86 968.3179,-86 974.3179,-86 980.3179,-92 980.3179,-98 980.3179,-98 980.3179,-138 980.3179,-138 980.3179,-144 974.3179,-150 968.3179,-150"/>
<text text-anchor="middle" x="915.9565" y="-134.8" font-family="Helvetica,sans-Serif" font-size="14.00" fill="#000000">Pitches &lt;= 1241.5</text>
<text text-anchor="middle" x="915.9565" y="-120.8" font-family="Helvetica,sans-Serif" font-size="14.00" fill="#000000">gini = 0.473</text>
<text text-anchor="middle" x="915.9565" y="-106.8" font-family="Helvetica,sans-Serif" font-size="14.00" fill="#000000">samples = 1154</text>
<text text-anchor="middle" x="915.9565" y="-92.8" font-family="Helvetica,sans-Serif" font-size="14.00" fill="#000000">value = [711, 443]</text>
</g>
<!-- 8&#45;&gt;12 -->
<g id="edge12" class="edge">
<title>8&#45;&gt;12</title>
<path fill="none" stroke="#000000" d="M765.7942,-185.9467C790.1996,-174.9036 817.581,-162.5138 842.2126,-151.3683"/>
<polygon fill="#000000" stroke="#000000" points="843.8385,-154.4743 851.5063,-147.163 840.9527,-148.0968 843.8385,-154.4743"/>
</g>
<!-- 10 -->
<g id="node11" class="node">
<title>10</title>
<path fill="#e58139" fill-opacity="0.070588" stroke="#000000" d="M675.6561,-50C675.6561,-50 572.257,-50 572.257,-50 566.257,-50 560.257,-44 560.257,-38 560.257,-38 560.257,-12 560.257,-12 560.257,-6 566.257,0 572.257,0 572.257,0 675.6561,0 675.6561,0 681.6561,0 687.6561,-6 687.6561,-12 687.6561,-12 687.6561,-38 687.6561,-38 687.6561,-44 681.6561,-50 675.6561,-50"/>
<text text-anchor="middle" x="623.9565" y="-34.8" font-family="Helvetica,sans-Serif" font-size="14.00" fill="#000000">gini = 0.499</text>
<text text-anchor="middle" x="623.9565" y="-20.8" font-family="Helvetica,sans-Serif" font-size="14.00" fill="#000000">samples = 602</text>
<text text-anchor="middle" x="623.9565" y="-6.8" font-family="Helvetica,sans-Serif" font-size="14.00" fill="#000000">value = [312, 290]</text>
</g>
<!-- 9&#45;&gt;10 -->
<g id="edge10" class="edge">
<title>9&#45;&gt;10</title>
<path fill="none" stroke="#000000" d="M670.5224,-85.9947C663.643,-76.9837 656.1477,-67.1658 649.2208,-58.0927"/>
<polygon fill="#000000" stroke="#000000" points="651.9034,-55.8386 643.0533,-50.014 646.3395,-60.0863 651.9034,-55.8386"/>
</g>
<!-- 11 -->
<g id="node12" class="node">
<title>11</title>
<path fill="#399de5" fill-opacity="0.380392" stroke="#000000" d="M821.6561,-50C821.6561,-50 718.257,-50 718.257,-50 712.257,-50 706.257,-44 706.257,-38 706.257,-38 706.257,-12 706.257,-12 706.257,-6 712.257,0 718.257,0 718.257,0 821.6561,0 821.6561,0 827.6561,0 833.6561,-6 833.6561,-12 833.6561,-12 833.6561,-38 833.6561,-38 833.6561,-44 827.6561,-50 821.6561,-50"/>
<text text-anchor="middle" x="769.9565" y="-34.8" font-family="Helvetica,sans-Serif" font-size="14.00" fill="#000000">gini = 0.472</text>
<text text-anchor="middle" x="769.9565" y="-20.8" font-family="Helvetica,sans-Serif" font-size="14.00" fill="#000000">samples = 1373</text>
<text text-anchor="middle" x="769.9565" y="-6.8" font-family="Helvetica,sans-Serif" font-size="14.00" fill="#000000">value = [525, 848]</text>
</g>
<!-- 9&#45;&gt;11 -->
<g id="edge11" class="edge">
<title>9&#45;&gt;11</title>
<path fill="none" stroke="#000000" d="M720.7673,-85.9947C728.1084,-76.8917 736.1135,-66.9654 743.4927,-57.8152"/>
<polygon fill="#000000" stroke="#000000" points="746.2308,-59.9953 749.7839,-50.014 740.7819,-55.601 746.2308,-59.9953"/>
</g>
<!-- 13 -->
<g id="node14" class="node">
<title>13</title>
<path fill="#e58139" fill-opacity="0.513725" stroke="#000000" d="M967.6561,-50C967.6561,-50 864.257,-50 864.257,-50 858.257,-50 852.257,-44 852.257,-38 852.257,-38 852.257,-12 852.257,-12 852.257,-6 858.257,0 864.257,0 864.257,0 967.6561,0 967.6561,0 973.6561,0 979.6561,-6 979.6561,-12 979.6561,-12 979.6561,-38 979.6561,-38 979.6561,-44 973.6561,-50 967.6561,-50"/>
<text text-anchor="middle" x="915.9565" y="-34.8" font-family="Helvetica,sans-Serif" font-size="14.00" fill="#000000">gini = 0.441</text>
<text text-anchor="middle" x="915.9565" y="-20.8" font-family="Helvetica,sans-Serif" font-size="14.00" fill="#000000">samples = 845</text>
<text text-anchor="middle" x="915.9565" y="-6.8" font-family="Helvetica,sans-Serif" font-size="14.00" fill="#000000">value = [568, 277]</text>
</g>
<!-- 12&#45;&gt;13 -->
<g id="edge13" class="edge">
<title>12&#45;&gt;13</title>
<path fill="none" stroke="#000000" d="M915.9565,-85.9947C915.9565,-77.6273 915.9565,-68.5643 915.9565,-60.0478"/>
<polygon fill="#000000" stroke="#000000" points="919.4566,-60.014 915.9565,-50.014 912.4566,-60.0141 919.4566,-60.014"/>
</g>
<!-- 14 -->
<g id="node15" class="node">
<title>14</title>
<path fill="#399de5" fill-opacity="0.137255" stroke="#000000" d="M1113.6561,-50C1113.6561,-50 1010.257,-50 1010.257,-50 1004.257,-50 998.257,-44 998.257,-38 998.257,-38 998.257,-12 998.257,-12 998.257,-6 1004.257,0 1010.257,0 1010.257,0 1113.6561,0 1113.6561,0 1119.6561,0 1125.6561,-6 1125.6561,-12 1125.6561,-12 1125.6561,-38 1125.6561,-38 1125.6561,-44 1119.6561,-50 1113.6561,-50"/>
<text text-anchor="middle" x="1061.9565" y="-34.8" font-family="Helvetica,sans-Serif" font-size="14.00" fill="#000000">gini = 0.497</text>
<text text-anchor="middle" x="1061.9565" y="-20.8" font-family="Helvetica,sans-Serif" font-size="14.00" fill="#000000">samples = 309</text>
<text text-anchor="middle" x="1061.9565" y="-6.8" font-family="Helvetica,sans-Serif" font-size="14.00" fill="#000000">value = [143, 166]</text>
</g>
<!-- 12&#45;&gt;14 -->
<g id="edge14" class="edge">
<title>12&#45;&gt;14</title>
<path fill="none" stroke="#000000" d="M966.2015,-85.9947C981.6469,-76.1562 998.6024,-65.3558 1013.8975,-55.613"/>
<polygon fill="#000000" stroke="#000000" points="1016.1333,-58.3386 1022.6872,-50.014 1012.3726,-52.4346 1016.1333,-58.3386"/>
</g>
</g>
</svg>
